<?xml version="1.0" encoding="UTF-8" standalone="no"?>
<!-- Created with Inkscape (http://www.inkscape.org/) -->

<svg
   width="91mm"
   height="91mm"
   viewBox="0 0 91 91"
   version="1.1"
   id="svg129"
   xml:space="preserve"
   inkscape:version="1.2.2 (b0a8486541, 2022-12-01)"
   sodipodi:docname="Qt_selector.svg"
   xmlns:inkscape="http://www.inkscape.org/namespaces/inkscape"
   xmlns:sodipodi="http://sodipodi.sourceforge.net/DTD/sodipodi-0.dtd"
   xmlns="http://www.w3.org/2000/svg"
   xmlns:svg="http://www.w3.org/2000/svg"><sodipodi:namedview
     id="namedview131"
     pagecolor="#ffffff"
     bordercolor="#000000"
     borderopacity="0.25"
     inkscape:showpageshadow="2"
     inkscape:pageopacity="0.0"
     inkscape:pagecheckerboard="0"
     inkscape:deskcolor="#d1d1d1"
     inkscape:document-units="mm"
     showgrid="false"
     inkscape:zoom="1.829812"
     inkscape:cx="-72.958315"
     inkscape:cy="127.88199"
     inkscape:window-width="2560"
     inkscape:window-height="1371"
     inkscape:window-x="0"
     inkscape:window-y="0"
     inkscape:window-maximized="1"
     inkscape:current-layer="layer1" /><defs
     id="defs126" /><g
     inkscape:label="Calque 1"
     inkscape:groupmode="layer"
     id="layer1"
     transform="translate(-48.552906,-101.47788)"><g
       id="g181"
       transform="matrix(0.34132818,0,0,0.34904685,32.713613,112.8248)"><path
         d="m 46.40488,159.57647 0.0118,-84.71249 c 0.0117,-83.62609 0.0388,-84.78455 2.11435,-90.33196 4.43707,-11.85913 11.10713,-15.89306 27.89749,-16.87189 10.06981,-0.58704 13.18358,-0.16957 76,10.18948 l 56.26153,9.278084 c 3.74924,0.71773 9.29924,6.7951344 9.23847,13.24316099 V 58.61384 c 0,53.90228 -0.29319,70.92859 -1.27722,74.17058 -1.56788,5.16554 -6.72925,12.10273 -10.73743,14.43174 -1.98699,1.15457 -26.06029,5.60398 -71.98535,13.30489 -37.95,6.36361 -69.9,11.75908 -71,11.98992 -4.791748,0.25148 -16.362578,-3.04055 -16.52364,-12.9345 z"
         id="path2400"
         style="fill:#7cc040"
         inkscape:connector-curvature="0"
         sodipodi:nodetypes="cccssccsssscc" /><path
         d="m 139.83815,210.27153 c 3.52962,0 3.71513,-0.37514 3.71513,-7.51273 0,-6.68185 -0.33787,-7.51273 -3.05492,-7.51273 -5.79384,0 -10.71855,-2.59056 -13.45808,-7.07944 -1.51123,-2.47618 -2.46154,-4.66434 -2.11184,-4.86258 0.34972,-0.19823 3.9621,-1.76767 8.02751,-3.48765 20.18376,-8.53921 29.23179,-27.695 29.28937,-62.00915 0.0693,-41.273427 -13.99551,-60.839584 -47.34379,-65.862081 -10.48608,-1.579289 -22.380002,-0.731761 -31.712131,2.259723 -13.939884,4.468532 -24.556883,16.429445 -29.781704,33.55147 -3.715824,12.176969 -3.670726,45.509868 0.07899,58.368078 5.500631,18.86243 18.482309,32.83931 34.065919,36.67745 5.771074,1.42137 6.575587,2.12473 9.00138,7.86939 3.772766,8.93455 7.143596,13.26964 12.515906,16.09617 5.37344,2.82712 16.01138,4.7117 22.55595,3.99594 2.47347,-0.27053 6.16904,-0.49186 8.21236,-0.49186 z m -35.36646,-43.11694 c -4.769379,-1.7569 -10.495212,-7.90182 -12.488988,-13.40305 -6.519197,-17.98786 -5.973147,-62.522383 0.922747,-75.256654 3.130288,-5.780508 10.359101,-10.387182 16.299661,-10.387182 6.57372,0 14.84096,5.856676 17.91253,12.689623 5.43172,12.083162 6.34693,52.645433 1.57255,69.694183 -3.79625,13.55594 -13.85882,20.4793 -24.2185,16.66308 z m 120.42317,-1.5996 c 0,-5.45323 -0.36591,-6.21427 -2.73747,-5.69369 -9.38209,2.05948 -11.56768,2.07311 -14.53244,0.0906 -2.89385,-1.93504 -3.0655,-3.72242 -3.0655,-31.92158 V 98.158581 h 9.38558 9.38556 v -6.785526 -6.785537 l -9.38556,-0.784582 -9.38558,-0.784582 V 72.163822 c 0,-5.96999 -0.52793,-11.092025 -1.17319,-11.382305 -0.64525,-0.290268 -4.63913,-0.711045 -8.87526,-0.935057 l -7.70207,-0.407293 -2.68362,8.090624 c -1.47598,4.449842 -3.12688,9.52093 -3.66862,11.269083 -0.84273,2.719282 -1.77163,3.178459 -6.43012,3.178459 h -5.44511 v 7.512722 7.512723 h 4.69277 4.69279 v 33.564342 c 0,41.01159 0.62367,42.58592 17.989,45.40929 11.30984,1.37292 28.74171,-2.82422 28.93884,-10.42142 z"
         style="fill:#ffffff;stroke-width:0.985029"
         id="path432"
         transform="matrix(0.67001424,0,0,0.80097386,46.404883,-32.508306)" /></g><g
       id="g7082"
       style="fill:#000000;stroke-width:16.9772;stroke-dasharray:none"
       transform="matrix(-0.11176386,-0.11176386,-0.11176386,0.11176386,247.17453,245.01344)"><g
         id="g1279"
         transform="rotate(-45,938.01149,209.25595)"><path
           id="path18962"
           style="opacity:1;fill:#000000;fill-opacity:1;stroke:#ffffff;stroke-width:16.9772;stroke-linecap:square;stroke-miterlimit:4;stroke-dasharray:none;stroke-dashoffset:0;stroke-opacity:1"
           d="m 173.99689,-1074.9074 34.70797,34.708 a 127.5,127.5 0 0 1 36.56266,-5.9923 127.5,127.5 0 0 1 127.50079,127.50079 127.5,127.5 0 0 1 -5.99507,36.55989 l 34.70798,34.70797 -84.94306,84.94306 -34.70797,-34.70798 a 127.5,127.5 0 0 1 -36.55989,5.99507 127.5,127.5 0 0 1 -127.50078,-127.50079 127.5,127.5 0 0 1 5.99228,-36.56266 l -34.707971,-34.70798 z"
           transform="rotate(90)" /><rect
           y="-637.18347"
           x="812.04498"
           height="97"
           width="22"
           id="rect4258"
           style="fill:#ffffff;fill-opacity:1;stroke:#ffffff;stroke-width:0;stroke-linecap:square;stroke-miterlimit:4;stroke-dasharray:none;stroke-dashoffset:0;stroke-opacity:1"
           transform="rotate(45)" /></g></g></g></svg>
